<svg class="icon" viewBox="0 0 1024 1024" xmlns="http://www.w3.org/2000/svg" width="200" height="200"><defs><style/></defs><path d="M824.754 1002.015H205.141c-84.733 0-156.227-71.494-156.227-153.58V234.119c0-84.733 68.846-153.579 156.227-153.579H589.09c21.183 0 39.718 18.536 39.718 39.719s-18.535 39.719-39.718 39.719H205.14c-42.366 0-79.437 34.423-79.437 76.79v614.317c0 39.718 37.07 76.79 79.437 76.79h616.966c42.366 0 79.437-34.424 79.437-76.79V385.05c0-21.183 18.536-39.719 39.719-39.719s39.719 18.536 39.719 39.719v463.386c-2.648 84.733-71.494 153.579-156.228 153.579z"/><path d="M787.684 840.492H247.508c-21.183 0-39.719-18.535-39.719-39.719s18.536-39.719 39.719-39.719h540.176c21.183 0 39.718 18.536 39.718 39.72s-18.535 39.718-39.718 39.718zM861.825 321.5L676.471 138.793 779.74 35.525c50.31-50.31 135.044-50.31 185.354 0 26.48 23.83 39.719 55.606 39.719 90.029 0 34.423-13.24 66.198-39.719 92.677L861.825 321.5zm-74.141-185.355l74.141 74.142 50.31-47.662c7.945-10.592 13.24-21.184 13.24-37.071s-5.295-26.48-15.887-37.071c-21.184-21.183-55.606-21.183-76.79 0l-45.014 47.662z"/><path d="M361.369 708.096c-21.184 0-39.72-7.944-52.959-23.831-18.535-18.536-26.479-47.663-18.535-71.494l26.479-103.269c2.648-7.944 7.944-21.183 18.535-31.775l397.188-394.54 185.355 182.706-399.836 397.188c-10.592 10.592-21.184 15.888-31.775 18.536h-2.648l-103.269 23.831c-7.944 2.648-13.24 2.648-18.535 2.648zm26.479-174.763l-23.832 97.973 100.621-23.83 344.23-338.935-74.142-74.141-346.877 338.933z"/><path d="M419.623 472.431L525.54 575.7l-47.663 45.015-105.917-103.27z"/></svg>