<svg class="icon" viewBox="0 0 1024 1024" xmlns="http://www.w3.org/2000/svg" width="200" height="200"><defs><style/></defs><path d="M1009.52 417.085L909.426 132.004l-.83-2.017c-16.107-33.823-38.502-65.127-92.784-65.127H203.96c-54.283 0-76.668 31.304-92.785 65.127L10.24 417.085l6.42 2.253h-3.727c0 47.688 38.8 86.477 86.477 86.477a86.267 86.267 0 0025.323-3.799V827.73c0 53.637 41.155 97.28 91.73 97.28h586.845c50.575 0 91.73-43.643 91.73-97.28V502.016a86.22 86.22 0 0025.323 3.799c47.688 0 86.477-38.79 86.477-86.477h-3.728l6.41-2.253zM854.078 827.73c0 31.048-22.784 56.32-50.77 56.32H216.464c-27.996 0-50.77-25.272-50.77-56.32v-352h-.87c1.045-1.198 2.028-2.447 3-3.707 15.831 20.5 40.571 33.782 68.414 33.782s52.582-13.281 68.413-33.782c15.831 20.5 40.571 33.782 68.414 33.782s52.582-13.281 68.413-33.782c15.831 20.5 40.571 33.782 68.414 33.782s52.582-13.281 68.413-33.782c15.831 20.5 40.57 33.782 68.413 33.782s52.593-13.281 68.414-33.782c15.83 20.5 40.57 33.782 68.413 33.782s52.583-13.281 68.414-33.782a94.814 94.814 0 003 3.707h-.87v352zm66.274-362.875a45.568 45.568 0 01-45.507-45.517h-45.803a45.568 45.568 0 01-45.507 45.517 45.568 45.568 0 01-45.517-45.517h-45.793a45.568 45.568 0 01-45.517 45.517 45.568 45.568 0 01-45.506-45.517h-45.804a45.568 45.568 0 01-45.506 45.517 45.568 45.568 0 01-45.517-45.517H418.58c0 25.098-20.418 45.517-45.516 45.517s-45.517-20.419-45.517-45.517h-45.793c0 25.098-20.419 45.517-45.517 45.517s-45.517-20.419-45.517-45.517h-45.793c0 25.098-20.419 45.517-45.517 45.517s-45.517-20.419-45.517-45.517H52.86l95.754-272.711c15.053-31.253 28.099-40.817 55.337-40.817h611.86c27.239 0 40.295 9.564 55.338 40.806l95.754 272.712h-1.034a45.558 45.558 0 01-45.517 45.527zM236.237 243.722h547.297v40.96H236.237z"/></svg>